<svg width="25" height="24" viewBox="0 0 25 24" fill="none" xmlns="http://www.w3.org/2000/svg">
<path fill-rule="evenodd" clip-rule="evenodd" d="M2.8999 12.0001C2.8999 6.48012 7.3699 2.00012 12.8999 2.00012C18.4199 2.00012 22.8999 6.48012 22.8999 12.0001C22.8999 17.5301 18.4199 22.0001 12.8999 22.0001C7.3699 22.0001 2.8999 17.5301 2.8999 12.0001ZM15.1299 13.8301L16.7499 8.71012C16.8599 8.36012 16.5399 8.03012 16.1899 8.14012L11.0699 9.74012C10.8599 9.81012 10.6899 9.97012 10.6299 10.1801L9.0299 15.3101C8.9199 15.6501 9.2499 15.9801 9.5899 15.8701L14.6899 14.2701C14.8999 14.2101 15.0699 14.0401 15.1299 13.8301Z" fill="#ADB3BC"/>
</svg>
