<svg width="25" height="24" viewBox="0 0 25 24" fill="none" xmlns="http://www.w3.org/2000/svg">
<path d="M9.43483 20.7733V17.7156C9.43483 16.9351 10.0722 16.3023 10.8585 16.3023H13.7327C14.1102 16.3023 14.4723 16.4512 14.7393 16.7163C15.0063 16.9813 15.1563 17.3408 15.1563 17.7156V20.7733C15.1539 21.0978 15.2821 21.4099 15.5124 21.6402C15.7427 21.8705 16.0561 22 16.383 22H18.3439C19.2597 22.0023 20.1388 21.6428 20.7872 21.0008C21.4356 20.3588 21.8001 19.487 21.8 18.5778V9.86686C21.8 9.13246 21.4721 8.43584 20.9047 7.96467L14.2341 2.67587C13.0737 1.74856 11.4112 1.7785 10.2854 2.74698L3.76706 7.96467C3.17279 8.42195 2.8176 9.12064 2.80005 9.86686V18.5689C2.80005 20.4639 4.34743 22 6.25622 22H8.17234C8.85128 22 9.40305 21.4562 9.40797 20.7822L9.43483 20.7733Z" fill="#ADB3BC"/>
</svg>
