<svg width="25" height="24" viewBox="0 0 25 24" fill="none" xmlns="http://www.w3.org/2000/svg">
<g clip-path="url(#clip0_3605_1020)">
<path fill-rule="evenodd" clip-rule="evenodd" d="M7.1001 2C4.33867 2 2.1001 4.23858 2.1001 7V17C2.1001 19.7614 4.33867 22 7.1001 22H17.1001C19.8615 22 22.1001 19.7614 22.1001 17V7C22.1001 4.23858 19.8615 2 17.1001 2H7.1001ZM4.32232 7.22219C4.32232 5.56534 5.66547 4.22219 7.32232 4.22219H16.8779C18.5347 4.22219 19.8779 5.56534 19.8779 7.22219V12.3333C19.8779 13.9902 18.5347 15.3333 16.8779 15.3333H15.4334V15.3334C15.4334 17.1743 13.9411 18.6667 12.1001 18.6667C10.2592 18.6667 8.76677 17.1743 8.76677 15.3334V15.3333H7.32233C5.66547 15.3333 4.32232 13.9902 4.32232 12.3333V7.22219Z" fill="#ADB3BC"/>
</g>
<defs>
<clipPath id="clip0_3605_1020">
<rect width="24" height="24" fill="white" transform="translate(0.100098)"/>
</clipPath>
</defs>
</svg>
